PathFileType	4	(X/Y/Z)	Patient4_TMGait_0pt5_02_right_11.trc.trc
DataRate	CameraRate	NumFrames	NumMarkers	Units	OrigDataRate	OrigDataStartFrame	OrigNumFrames
75.268817204301	75.268817204301	5	33	mm	75.268817204301	106	       141
Frame#	Time	Sacral			L.Shoulder			Chest			R.Shoulder			Neck			R.ASIS			L.ASIS			R.Thigh.Superior			R.Thigh.Lateral			R.Thigh.Inferior			R.Patella			L.Thigh.Superior			L.Thigh.Lateral			L.Thigh.Inferior			L.Patella			L.Shank.Superior			L.Shank.Lateral			L.Shank.Inferior			R.Shank.Superior			R.Shank.Lateral			R.Shank.Inferior			R.Heel			R.Midfoot.Superior			R.Midfoot.Lateral			R.Toe			L.Heel			L.Midfoot.Lateral			L.Midfoot.Superior			L.Toe			L.Elbow			L.Wrist			R.Elbow			R.Wrist			
		X1	Y1	Z1	X2	Y2	Z2	X3	Y3	Z3	X4	Y4	Z4	X5	Y5	Z5	X6	Y6	Z6	X7	Y7	Z7	X8	Y8	Z8	X9	Y9	Z9	X10	Y10	Z10	X11	Y11	Z11	X12	Y12	Z12	X13	Y13	Z13	X14	Y14	Z14	X15	Y15	Z15	X16	Y16	Z16	X17	Y17	Z17	X18	Y18	Z18	X19	Y19	Z19	X20	Y20	Z20	X21	Y21	Z21	X22	Y22	Z22	X23	Y23	Z23	X24	Y24	Z24	X25	Y25	Z25	X26	Y26	Z26	X27	Y27	Z27	X28	Y28	Z28	X29	Y29	Z29	X30	Y30	Z30	X31	Y31	Z31	X32	Y32	Z32	X33	Y33	Z33	

106	15.805000000000	538.460514766230	1005.089486652254	448.748281370775	713.545806794539	1443.675348087245	282.783635503152	810.204785533457	1368.457971864912	445.671946004778	717.523546696127	1434.253251314070	619.495281315915	704.201843687292	1498.727948559374	437.261200475147	764.167103915537	947.300600486023	570.086694052850	758.163300453756	964.381413144926	294.335699950213	856.096737056585	787.090057447964	537.401954391099	826.796528983193	664.747982848282	612.955186528104	917.308105798201	630.594807791052	531.619355314836	945.484360004307	519.207353426491	554.902446000626	796.370475957769	745.991999451972	328.941965032729	701.828775202250	633.945692843767	271.935341515808	777.368418547698	552.624848448179	339.700235464781	771.980323589811	482.747708787250	353.551713578186	743.038247713590	412.008062131426	345.545353480458	651.728328635219	301.040694447984	291.647414876842	689.614727860575	190.106594329879	369.476820458833	876.128907089992	438.862361107880	564.576578497835	759.551523773889	388.077974053019	624.566662383899	756.973335461042	277.159336655114	579.424857251877	565.367933949732	206.902677326807	549.551224531616	733.071806378026	148.882259428881	597.390734439211	622.066931436663	149.337490837207	626.380187015933	793.343483619740	34.153588132636	626.927424785165	551.362096387448	37.800052926619	407.485655018503	627.996551615231	34.991369449781	329.135647075853	710.708256148579	95.453803504772	358.981391956951	839.791973175560	42.742843779471	334.143634585839	754.062054593267	1104.574248867032	132.870328705253	937.727245281746	916.878557384538	123.398074081561	643.984326830306	1087.390661752418	712.678648712233	683.733813247193	828.944965967037	723.534714108266	
107	15.818285714286	537.986665535583	1005.582889637881	447.886542902248	715.394113534304	1443.841125305065	282.517540262741	810.671631575164	1368.297529342787	446.018437175019	717.079684861184	1434.323248377850	619.348851756246	704.970983941702	1498.853195462990	436.985999563962	763.019658031089	947.596562465850	570.076940808239	757.917370508260	964.133986374481	294.366090531459	855.343540927039	788.485879352632	537.045611697594	827.300390371104	666.039704959324	613.088774788993	917.295269506930	632.213003189632	531.175480544690	946.947102592252	522.277945587641	554.832665157026	794.000523290398	745.106210806681	329.242289384543	698.401515690155	633.961419065434	271.680309935253	772.853786401826	551.926103194219	339.596291997598	766.671510467266	482.176771153047	353.435708374156	737.630743181972	411.729888141407	345.386707619796	645.978013387344	301.089315682142	291.447917339263	683.345079673187	190.035110591064	369.326092300667	880.875223312025	440.147247934728	564.375970458813	767.022681567625	383.619408617689	624.211865005096	769.930789027068	272.834272998122	578.760864267713	581.913062952180	192.008533233991	548.731783202587	752.822728624414	144.153710501333	596.469199847022	642.079531444139	138.149611862703	625.706631644204	819.891594497880	33.768866210422	626.299067327362	544.711097553526	37.923022251355	407.417223030603	621.338573584160	35.018597341602	329.106275837804	704.120768962951	95.407322404221	358.908230804958	833.177559513528	42.480536260284	334.114560754987	758.643964425181	1105.797684084588	131.777296974737	950.369830948338	926.234060728908	123.053699762044	634.202320108153	1090.029186782498	711.820046459592	658.941462174033	829.738345029486	724.468889591780	
108	15.831571428571	537.544029941580	1006.023911885708	447.161363210892	717.322171124999	1443.854949958839	282.394432125230	811.269789663272	1367.990604594873	446.458318384096	716.891044821389	1434.361689170100	619.311745430494	705.924288538096	1498.879214478891	436.809201837752	761.889931751816	947.726544881885	570.200829921195	757.606796407756	963.848585098627	294.572620948782	854.260609252208	789.325312642064	537.004299405171	827.013303490802	666.816668716583	613.458944217007	916.488527749816	633.105776070604	531.114982105842	947.416793351461	524.872453096359	555.112356448001	791.618093764824	744.209636815877	329.611562118302	694.966212190686	633.972273105123	271.451126410192	768.320348452817	551.233657225342	339.493079396773	761.354694217058	481.618274215778	353.286760564128	732.215021783254	411.444745041001	345.212699773921	640.203027653189	301.138525962092	291.259876461685	677.062919703231	189.959635025309	369.173590446514	884.992222731896	441.053880458272	564.478261093922	774.482371550823	378.474070598984	624.266191130073	783.264910064272	268.166753856383	578.415214374743	599.843735694360	176.338272876790	548.288281110373	773.423503768039	139.324530168004	595.828635164428	663.383251975858	126.516684927776	625.344734302640	847.352595309391	33.848040650365	625.857752907484	538.071660518434	38.047191075749	407.350671600183	614.681247155768	35.043507042214	329.078911679340	697.531033639836	95.359263002904	358.834239228844	826.560052393425	42.227705942905	334.084860306607	763.008934815835	1106.814851252919	130.927583593417	962.245595322681	935.553747792137	123.036403150850	624.456491912731	1093.086625069919	711.217410077518	635.669063408704	831.998289371743	725.232345577033	
109	15.844857142857	537.143298522810	1006.399294485876	446.573839456832	719.297113572280	1443.711278651711	282.417612100475	811.982543208863	1367.538124120904	446.992531770181	716.943410673117	1434.360046360686	619.382937026502	707.043362047130	1498.798995848837	436.734617777871	760.802552401786	947.684969850830	570.461812673408	757.254632177576	963.535073993797	294.949619823437	852.833359806541	789.559632482763	537.284288404467	825.840303626366	667.017129911235	614.019059889505	914.848154998701	633.229830149889	531.434360446095	946.846644211871	526.934195669356	555.673734535478	789.257773665108	743.293629344477	330.020571180026	691.543008583348	633.965781419334	271.261265840728	763.801784015371	550.539184725398	339.395590701619	756.073847554881	481.063063252741	353.119138328987	726.823091305808	411.141385430495	345.036742815903	634.427442622333	301.185801361046	291.091518003740	670.777903347982	189.872684415327	369.028218398996	888.401329512894	441.598442844258	564.844096276219	781.883573994996	372.807637627735	624.719523488776	796.828616991806	263.363575263900	578.389193757533	619.062350677522	160.289054131218	548.235074283172	794.646683433434	134.684732745490	595.509771723040	685.806971103947	114.831999279879	625.317177760566	875.345356092159	34.671092403959	625.652900349911	531.438592131432	38.173439343493	407.286955062557	608.023004610682	35.066215118119	329.054529684230	690.938019079588	95.309581038695	358.762316245929	819.936151621320	41.987079770164	334.055750994845	767.178123120805	1107.615756368043	130.327297002095	973.324944452005	944.721618118049	123.332810782719	614.829985072251	1096.536227249630	710.860720433173	614.027685967157	835.432402419944	725.850748967934	
110	15.858142857143	536.800236469521	1006.700587070556	446.128576694077	721.289200705487	1443.413758795796	282.587008191582	812.791854969888	1366.949862657763	447.622167400378	717.214627455895	1434.313627041037	619.561522875610	708.302856705495	1498.611437541330	436.766284330555	759.786095890749	947.473869505524	570.863995764507	756.893032649484	963.193379326199	295.482601392366	851.053219105710	789.154137841281	537.888103684837	823.712322852086	666.602866068537	614.735024717176	912.348959148411	632.562901613253	532.123610291235	945.208225310243	528.419030161837	556.442499816819	786.946407059509	742.350015091944	330.452431001394	688.148985920678	633.933476159322	271.126033353572	759.325293103007	549.835533389676	339.313096635229	750.863362384916	480.502331382274	352.948870828006	721.478407468768	410.811945571651	344.872712228036	628.668979516381	301.231006427383	290.950527066953	664.497497164178	189.769669178282	368.896290280994	891.029373633868	441.802485503988	565.427890225301	789.152402542148	366.791637162782	625.546747362444	810.437984537588	258.617716166145	578.666329294755	639.373013578238	144.252685095968	548.573438203308	816.214508073931	130.480339339529	595.518151349174	709.102369846609	103.453626380749	625.624812706451	903.459981579204	36.449336023498	625.686132166087	524.806459873151	38.303637667713	407.226617905363	601.362461803868	35.087402111571	329.033937711723	684.341141772325	95.258580164968	358.694088847899	813.302913770670	41.760595236946	334.028421641042	771.164215579160	1108.199580328050	129.983252637156	983.583646784522	953.623682200603	123.928261100729	605.440725519088	1100.326733061437	710.729616827401	594.083991219864	839.747458727905	726.355287957334	
